<?xml version="1.0" encoding="utf-8"?>
<!-- Generator: Adobe Illustrator 16.0.0, SVG Export Plug-In . SVG Version: 6.00 Build 0)  -->
<!DOCTYPE svg PUBLIC "-//W3C//DTD SVG 1.0//EN" "http://www.w3.org/TR/2001/REC-SVG-20010904/DTD/svg10.dtd">
<svg version="1.0" id="Layer_1" xmlns="http://www.w3.org/2000/svg" xmlns:xlink="http://www.w3.org/1999/xlink" x="0px" y="0px"
	 width="1045.943px" height="146.94px" viewBox="0 0 1045.943 146.94" enable-background="new 0 0 1045.943 146.94"
	 xml:space="preserve">
<g>
	<g>
		<path fill="none" stroke="#000000" stroke-width="10.9442" stroke-linecap="round" stroke-miterlimit="10" d="M99.354,94.535
			c0-25.93-21.017-46.948-46.938-46.948c-25.925,0-46.943,21.019-46.943,46.948"/>
		<path fill="none" stroke="#000000" stroke-width="10.9442" stroke-linecap="round" stroke-miterlimit="10" d="M193.237,94.535
			c0-25.93-21.017-46.948-46.94-46.948c-25.925,0-46.943,21.019-46.943,46.948"/>
		<path fill="none" stroke="#000000" stroke-width="10.9442" stroke-linecap="round" stroke-miterlimit="10" d="M287.121,94.535
			c0-25.93-21.019-46.948-46.94-46.948c-25.925,0-46.943,21.019-46.943,46.948"/>
	</g>
	<path fill="none" stroke="#000000" stroke-width="10.9442" stroke-linecap="round" stroke-miterlimit="10" d="M521.038,94.153
		c0,25.914,21.012,46.933,46.937,46.933c25.932,0,46.95-21.019,46.95-46.933"/>
	
		<line fill="none" stroke="#000000" stroke-width="10.9442" stroke-miterlimit="10" x1="946.593" y1="93.979" x2="946.593" y2="146.7"/>
	<path fill="none" stroke="#000000" stroke-width="10.9442" stroke-linecap="round" stroke-miterlimit="10" d="M1040.472,93.979
		c0-25.93-21.009-46.948-46.931-46.948c-25.935,0-46.948,21.019-46.948,46.948"/>
	<path fill="none" stroke="#000000" stroke-width="10.9442" stroke-miterlimit="10" d="M381.069,94.53
		c0,25.924-21.017,46.938-46.938,46.938s-46.938-21.014-46.938-46.938c0-25.919,21.017-46.933,46.938-46.933
		S381.069,68.61,381.069,94.53z"/>
	
		<line fill="none" stroke="#000000" stroke-width="10.9442" stroke-linecap="round" stroke-miterlimit="10" x1="498.45" y1="6.257" x2="498.45" y2="93.536"/>
	<path fill="none" stroke="#000000" stroke-width="10.9442" stroke-miterlimit="10" d="M498.44,94.53
		c0,25.924-21.017,46.938-46.938,46.938s-46.936-21.014-46.936-46.938c0-25.919,21.014-46.933,46.936-46.933
		S498.44,68.61,498.44,94.53z"/>
	<path fill="none" stroke="#000000" stroke-width="10.9442" stroke-miterlimit="10" d="M771.832,146.348V94.53
		c0-25.919-21.008-46.933-46.933-46.933S677.961,68.61,677.961,94.53c0,25.924,21.014,46.938,46.938,46.938l52.3-0.382"/>
	<path fill="none" stroke="#000000" stroke-width="10.9442" stroke-linecap="round" stroke-miterlimit="10" d="M667.867,141.188
		c-16.182-7.407-27.428-23.744-27.428-42.705V5.472"/>
	<path fill="none" stroke="#000000" stroke-width="10.9442" stroke-miterlimit="10" d="M921.807,94.53
		c0,25.924-21.009,46.938-46.934,46.938c-25.924,0-46.938-21.014-46.938-46.938c0-25.919,21.014-46.933,46.938-46.933
		C900.798,47.597,921.807,68.61,921.807,94.53z"/>
	<g>
		<g>
			
				<line fill="none" stroke="#000000" stroke-width="11.193" stroke-miterlimit="10" x1="803.314" y1="18.661" x2="803.314" y2="146.7"/>
			
				<line fill="none" stroke="#000000" stroke-width="11.193" stroke-linecap="round" stroke-linejoin="round" stroke-miterlimit="10" x1="803.314" y1="6.466" x2="803.314" y2="65.284"/>
		</g>
		
			<line fill="none" stroke="#000000" stroke-width="10.9442" stroke-linecap="round" stroke-linejoin="round" stroke-miterlimit="10" x1="804.39" y1="35.07" x2="823.151" y2="35.07"/>
	</g>
</g>
</svg>
